<?xml version="1.0" standalone="no"?><!DOCTYPE svg PUBLIC "-//W3C//DTD SVG 1.1//EN" "http://www.w3.org/Graphics/SVG/1.1/DTD/svg11.dtd"><svg t="1650210868365" class="icon" viewBox="0 0 1024 1024" version="1.1" xmlns="http://www.w3.org/2000/svg" p-id="7446" xmlns:xlink="http://www.w3.org/1999/xlink" width="200" height="200"><defs><style type="text/css">@font-face { font-family: feedback-iconfont; src: url("//at.alicdn.com/t/font_1031158_u69w8yhxdu.woff2?t=1630033759944") format("woff2"), url("//at.alicdn.com/t/font_1031158_u69w8yhxdu.woff?t=1630033759944") format("woff"), url("//at.alicdn.com/t/font_1031158_u69w8yhxdu.ttf?t=1630033759944") format("truetype"); }
</style></defs><path d="M 526.5 328.929 c 17.0906 16.9882 51.6813 42.3731 49.2442 51.9578 c -3.19488 12.6771 -62.464 65.792 -63.3037 80.0563 s 37.673 57.8662 34.4678 70.5536 s -44.8717 58.6445 -45.6602 72.9088 s 22.4154 79.2576 16.0154 86.3949 s -74.5267 -95.1194 -69.7139 -109.384 s 44.8717 -50.729 43.2742 -61.0304 s -52.8896 -82.4218 -50.4832 -97.4848 s 52.0806 -37.2531 52.0806 -48.343 c 0 -9.43104 -47.3907 -87.5008 -56.1459 -119.941 c -142.479 -113.992 -322.232 40.3149 -313.047 188.037 c 10.8544 174.838 328.11 427.581 389.837 427.581 s 378.88 -252.733 389.786 -427.581 c 10.6803 -170.865 -231.475 -350.607 -376.34 -113.664" fill="#f0345a" p-id="7447"></path></svg>