<?xml version="1.0" encoding="UTF-8"?>
<svg width="200" height="200" version="1.1" viewBox="0 0 600 600" xmlns="http://www.w3.org/2000/svg" xmlns:xlink="http://www.w3.org/1999/xlink">
 <g>
  <path d="m601.77 255c-0.69922-2.7422-2.9062-4.8477-5.6719-5.4336l-3.3867-0.70703v-47.383l5.5273-4.7266c2.1836-1.8594 3.0977-4.8164 2.3477-7.582-0.75-2.7656-3.0312-4.8555-5.8516-5.3633l-31.051-5.6328 0.011718-39.895-0.011718-0.82422 5.7188-4.8828c2.1797-1.8633 3.0977-4.8203 2.3477-7.582-0.75-2.7734-3.0312-4.8594-5.8516-5.3711l-250.98-45.289c-1.9492-0.35938-3.9492 0.085937-5.5664 1.2148l-194.48 135.63c-3.6719 2.0352-17.125 11.27-16.871 36.938 0.28516 27.871 16.777 40.527 17.484 41.055 0.09375 0.074219 0.20312 0.11719 0.30078 0.18359 0.16797 0.11719 0.33594 0.22266 0.50781 0.32422 0.18359 0.10547 0.375 0.19531 0.57031 0.28516 0.17188 0.085938 0.34766 0.15625 0.53906 0.22266 0.21094 0.078124 0.42578 0.13281 0.64453 0.19141 0.125 0.039062 0.24219 0.089844 0.36328 0.11719l11.484 2.4062c-1.8633 5.0664-3.1289 11.418-3.0469 19.398 0.14062 13.809 4.2578 23.879 8.4609 30.594l-8.8984 6.1992c-3.6953 2.0625-17.125 11.312-16.863 36.938 0.28125 27.871 16.766 40.555 17.488 41.055 0.62109 0.42578 1.8633 1.082 2.918 1.3203l263.28 55.242c0.027343 0.003906 0.054687 0.015625 0.085937 0.023437l9.4023 1.9727c0.50391 0.10547 1.0195 0.15625 1.5234 0.15625 1.7461 0 3.4609-0.62109 4.8164-1.7734l173.04-147.8c2.1562-1.8438 3.0742-4.75 2.375-7.4883-0.70703-2.7422-2.9062-4.8477-5.6797-5.4336l-3.0898-0.64453v-39.934l23.684-20.227c2.1641-1.8477 3.0859-4.7539 2.3828-7.4922zm-210.23 27.164c1.7539 0 3.4648-0.62109 4.8203-1.7812l152.57-130.32v47.188l-158.76 135.03v-50.262c0.46484 0.085937 0.91797 0.14453 1.375 0.14453zm-265.17-55.477 248.92 52.23v50.23l-248.92-52.125zm11.555 188.2v-50.301l248.91 52.242v50.301zm17.414-73.668v-42.98l226.36 47.492c0.027344 0.003907 0.050782 0.015626 0.078125 0.023438l9.4023 1.9727c0.50781 0.10547 1.0195 0.15625 1.5234 0.15625 1.7461 0 3.4648-0.62109 4.8203-1.7734l4.1172-3.5234 2.4883 0.51953v50.281zm405.52-6.3906-159.09 135.44-0.050781-50.328c0.45312 0.089844 0.91406 0.14062 1.3711 0.14062 1.7461 0 3.4609-0.61719 4.8164-1.7734l8.3945-7.168 3.7109 0.77734c0.50391 0.10547 1.0195 0.15625 1.5195 0.15625 1.7539 0 3.4648-0.62109 4.8203-1.7734l134.51-114.95zm17.27-73.703-159.07 135.39-0.054688-50.305c0.46094 0.085938 0.91406 0.14062 1.3672 0.14062 1.7539 0 3.4648-0.62109 4.8203-1.7734l152.96-130.66z"/>
 </g>
</svg>
