<?xml version="1.0" standalone="no"?><!DOCTYPE svg PUBLIC "-//W3C//DTD SVG 1.1//EN" "http://www.w3.org/Graphics/SVG/1.1/DTD/svg11.dtd"><svg t="1650390862129" class="icon" viewBox="0 0 1461 1024" version="1.1" xmlns="http://www.w3.org/2000/svg" p-id="20800" xmlns:xlink="http://www.w3.org/1999/xlink" width="285.3515625" height="200"><defs><style type="text/css">@font-face { font-family: feedback-iconfont; src: url("//at.alicdn.com/t/font_1031158_u69w8yhxdu.woff2?t=1630033759944") format("woff2"), url("//at.alicdn.com/t/font_1031158_u69w8yhxdu.woff?t=1630033759944") format("woff"), url("//at.alicdn.com/t/font_1031158_u69w8yhxdu.ttf?t=1630033759944") format("truetype"); }
</style></defs><path d="M51.287936 816.352638h1327.519798S1475.942495 530.337128 1038.818965 530.337128c5.388772-140.279154 26.978076-366.966845-156.496792-469.507485s-820.290907-151.10802-733.899477 496.485562c-70.139577 43.178608-156.496793 156.5139-97.13476 259.037433z" fill="#E85911" p-id="20801"></path><path d="M1419.711083 801.657541c0 16.919035-11.547369 30.621913-25.797679 30.621913H25.798187c-14.250309 0-25.797679-13.685771-25.797679-30.621913 0-16.919035 11.547369-30.621913 25.797679-30.621913H1393.913404c14.250309 0 25.797679 13.685771 25.797679 30.621913z" fill="#D3D3D3" p-id="20802"></path><path d="M957.936058 843.347821m-151.10802 0a151.10802 151.10802 0 1 0 302.21604 0 151.10802 151.10802 0 1 0-302.21604 0Z" fill="#3A3A39" p-id="20803"></path><path d="M957.936058 843.347821m-75.545457 0a75.545457 75.545457 0 1 0 151.090914 0 75.545457 75.545457 0 1 0-151.090914 0Z" fill="#FFFFE3" p-id="20804"></path><path d="M380.49916 843.347821m-151.10802 0a151.10802 151.10802 0 1 0 302.21604 0 151.10802 151.10802 0 1 0-302.21604 0Z" fill="#3A3A39" p-id="20805"></path><path d="M380.49916 843.347821m-75.545457 0a75.545457 75.545457 0 1 0 151.090914 0 75.545457 75.545457 0 1 0-151.090914 0Z" fill="#FFFFE3" p-id="20806"></path><path d="M1109.026971 586.106646s179.882354-57.565775 226.653477 154.700535c-68.34332-93.542246-118.724064-118.724064-226.653477-154.700535z" fill="#D5FBFF" p-id="20807"></path><path d="M624.978354 560.924827h363.357223v-176.204303s25.198926-316.722958-363.357223-259.122969zM319.563264 383.916485v176.289839H564.042458V119.319207C300.36897 137.059388 319.563264 383.916485 319.563264 383.916485z" fill="#9DE7F7" p-id="20808"></path><path d="M624.978354 560.924827h363.357223v-176.204303s25.198926-316.722958-363.357223-259.122969z" fill="#F2F2F2" p-id="20809"></path><path d="M624.978354 560.924827h363.357223v-176.204303s25.198926-316.722958-363.357223-259.122969z" fill="#F2F2F2" p-id="20810"></path><path d="M319.631693 383.916485v176.289839h244.479194V119.319207c-263.622166 17.740181-244.479194 264.597277-244.479194 264.597278z" fill="#F2F2F2" p-id="20811"></path><path d="M320.110695 383.916485v176.289839h244.496301V119.319207C300.967723 137.059388 320.110695 383.916485 320.110695 383.916485z" fill="#F2F2F2" p-id="20812"></path></svg>