<?xml version="1.0" standalone="no"?><!DOCTYPE svg PUBLIC "-//W3C//DTD SVG 1.1//EN" "http://www.w3.org/Graphics/SVG/1.1/DTD/svg11.dtd"><svg t="1654597318932" class="icon" viewBox="0 0 1024 1024" version="1.1" xmlns="http://www.w3.org/2000/svg" p-id="2223" xmlns:xlink="http://www.w3.org/1999/xlink" width="200" height="200"><defs><style type="text/css">@font-face { font-family: feedback-iconfont; src: url("//at.alicdn.com/t/font_1031158_u69w8yhxdu.woff2?t=1630033759944") format("woff2"), url("//at.alicdn.com/t/font_1031158_u69w8yhxdu.woff?t=1630033759944") format("woff"), url("//at.alicdn.com/t/font_1031158_u69w8yhxdu.ttf?t=1630033759944") format("truetype"); }
</style></defs><path d="M421.19168 147.2512c-175.47264 0-317.6448 126.1568-317.6448 281.84576 0 88.8832 46.55104 167.95648 119.13216 219.77088v142.4384l139.18208-85.6064a355.7376 355.7376 0 0 0 59.33056 4.99712c175.45216 0 317.6448-126.1568 317.6448-281.6 0.24576-155.68896-142.19264-281.84576-317.6448-281.84576z m-158.72 322.1504a40.01792 40.01792 0 0 1-39.79264-40.30464c0-22.28224 17.77664-40.30464 39.81312-40.30464 22.016 0 39.79264 18.0224 39.79264 40.30464-0.24576 22.28224-18.0224 40.30464-39.79264 40.30464z m158.72 0a40.01792 40.01792 0 0 1-39.81312-40.30464c0-22.28224 17.77664-40.30464 39.81312-40.30464 22.016 0 39.79264 18.0224 39.79264 40.30464a40.01792 40.01792 0 0 1-39.79264 40.30464z m158.9248 0a40.01792 40.01792 0 0 1-39.79264-40.30464c0-22.28224 17.77664-40.30464 39.81312-40.30464 22.016 0 39.79264 18.0224 39.79264 40.30464a40.01792 40.01792 0 0 1-39.79264 40.30464z m206.76608-81.34656l1.24928 20.02944c0.26624 19.00544 0 17.26464 0 34.77504 0 184.7296-143.6672 312.64768-343.16288 312.64768h-68.608c54.5792 53.82144 117.90336 86.85568 205.76256 86.85568 18.78016 0 37.0688-1.7408 54.82496-4.75136l128.16384 79.85152V786.0224c69.59104-48.31232 114.3808-123.14624 114.3808-207.2576 0-75.10016-35.77856-142.68416-92.61056-190.73024z" p-id="2224" fill="#0ea608"></path></svg>