<?xml version="1.0" standalone="no"?><!DOCTYPE svg PUBLIC "-//W3C//DTD SVG 1.1//EN" "http://www.w3.org/Graphics/SVG/1.1/DTD/svg11.dtd"><svg t="1650211437290" class="icon" viewBox="0 0 1024 1024" version="1.1" xmlns="http://www.w3.org/2000/svg" p-id="21503" xmlns:xlink="http://www.w3.org/1999/xlink" width="200" height="200"><defs><style type="text/css">@font-face { font-family: feedback-iconfont; src: url("//at.alicdn.com/t/font_1031158_u69w8yhxdu.woff2?t=1630033759944") format("woff2"), url("//at.alicdn.com/t/font_1031158_u69w8yhxdu.woff?t=1630033759944") format("woff"), url("//at.alicdn.com/t/font_1031158_u69w8yhxdu.ttf?t=1630033759944") format("truetype"); }
</style></defs><path d="M512 1024C230.4 1024 0 793.6 0 512S230.4 0 512 0s512 230.4 512 512-230.4 512-512 512z m0-960C265.6 64 64 265.6 64 512s201.6 448 448 448 448-201.6 448-448S758.4 64 512 64z" fill="#000000" p-id="21504"></path><path d="M736 822.4c-12.8 0-25.6-6.4-28.8-19.2-32-80-108.8-131.2-195.2-131.2-86.4 0-163.2 51.2-195.2 131.2-6.4 16-25.6 25.6-41.6 19.2-16-6.4-25.6-25.6-19.2-41.6 44.8-105.6 144-172.8 256-172.8s211.2 67.2 252.8 169.6c6.4 16 0 35.2-19.2 41.6 0 3.2-6.4 3.2-9.6 3.2z" fill="#000000" p-id="21505"></path><path d="M364.8 441.6c-6.4 0-12.8-3.2-19.2-6.4l-115.2-89.6c-12.8-9.6-16-32-6.4-44.8 9.6-12.8 32-16 44.8-6.4L384 384c12.8 9.6 16 32 6.4 44.8-6.4 9.6-16 12.8-25.6 12.8z" fill="#000000" p-id="21506"></path><path d="M249.6 537.6c-9.6 0-19.2-3.2-25.6-12.8-9.6-12.8-6.4-32 6.4-44.8l115.2-89.6c12.8-9.6 35.2-9.6 44.8 6.4 9.6 12.8 9.6 35.2-6.4 44.8l-115.2 89.6c-3.2 3.2-12.8 6.4-19.2 6.4z" fill="#000000" p-id="21507"></path><path d="M665.6 441.6c-9.6 0-19.2-3.2-25.6-12.8-9.6-12.8-9.6-35.2 6.4-44.8l115.2-89.6c12.8-9.6 35.2-9.6 44.8 6.4 9.6 12.8 9.6 35.2-6.4 44.8l-115.2 89.6c-3.2 3.2-12.8 6.4-19.2 6.4z" fill="#000000" p-id="21508"></path><path d="M780.8 537.6c-6.4 0-12.8-3.2-19.2-6.4l-115.2-89.6c-12.8-9.6-16-32-6.4-44.8 9.6-12.8 32-16 44.8-6.4L800 480c12.8 9.6 16 32 6.4 44.8-6.4 9.6-16 12.8-25.6 12.8z" fill="#000000" p-id="21509"></path></svg>