<?xml version="1.0" standalone="no"?><!DOCTYPE svg PUBLIC "-//W3C//DTD SVG 1.1//EN" "http://www.w3.org/Graphics/SVG/1.1/DTD/svg11.dtd"><svg t="1650390365018" class="icon" viewBox="0 0 1024 1024" version="1.1" xmlns="http://www.w3.org/2000/svg" p-id="2738" xmlns:xlink="http://www.w3.org/1999/xlink" width="200" height="200"><defs><style type="text/css">@font-face { font-family: feedback-iconfont; src: url("//at.alicdn.com/t/font_1031158_u69w8yhxdu.woff2?t=1630033759944") format("woff2"), url("//at.alicdn.com/t/font_1031158_u69w8yhxdu.woff?t=1630033759944") format("woff"), url("//at.alicdn.com/t/font_1031158_u69w8yhxdu.ttf?t=1630033759944") format("truetype"); }
</style></defs><path d="M784.269344 484.688062c0 199.893498-118.064432 328.688185-263.713607 328.688185-145.64522 0-263.713606-128.806548-263.713606-328.688185C256.842131 284.806425 374.910517 63.041236 520.559691 63.041236c145.64522 0 263.709653 221.761236 263.709653 421.646826z" fill="#B3EBB5" p-id="2739"></path><path d="M516.606023 55.1339C370.956849 55.1339 252.888463 276.895135 252.888463 476.780726s118.068386 328.688185 263.713606 328.688185c145.649174 0 263.713606-128.794687 263.713607-328.688185 0-199.885591-118.064432-421.646826-263.709653-421.646826z m-13.66783 647.539644c-122.623012 0-222.026131-108.445158-222.026131-276.729081 0-168.287876 99.40312-354.995892 222.030085-354.995892 122.626965 0 222.022178 186.708015 222.022177 354.995892 0 168.29183-99.395212 276.729081-222.026131 276.729081z" fill="#A3D6A5" opacity=".65" p-id="2740"></path><path d="M566.22851 692.469127V527.814672l97.426285-97.426286s16.779367-28.976432-10.038363-55.790208l-127.822085 150.97081V701.776062l40.434163-9.306935zM382.592494 521.813004s-24.180633 19.376927 0 43.561513c24.180633 24.180633 128.822363 136.729699 128.822363 136.729699v-33.792l-128.822363-146.499212z" fill="#A3D6A5" opacity=".65" p-id="2741"></path><path d="M525.790394 1008.185328V332.554873" fill="#FFD25F" p-id="2742"></path><path d="M541.605066 1008.185328V332.554873a15.814672 15.814672 0 0 0-31.629344 0V1008.185328a15.814672 15.814672 0 0 0 31.629344 0z" fill="#C98D54" p-id="2743"></path><path d="M525.790394 509.770131l116.957405-123.682594" fill="#FFD25F" p-id="2744"></path><path d="M537.283707 520.642718l116.957405-123.686548a15.814672 15.814672 0 1 0-22.974765-21.733313L514.304988 498.905452a15.814672 15.814672 0 0 0 22.978719 21.737266z" fill="#C98D54" p-id="2745"></path><path d="M525.790394 657.447537l-127.422765-134.756819" fill="#FFD25F" p-id="2746"></path><path d="M537.283707 646.582857l-127.422765-134.756818a15.814672 15.814672 0 1 0-22.978718 21.729359l127.422764 134.756818a15.806764 15.806764 0 0 0 22.350085 0.620726 15.806764 15.806764 0 0 0 0.628634-22.350085z" fill="#C98D54" p-id="2747"></path></svg>