<?xml version="1.0" standalone="no"?><!DOCTYPE svg PUBLIC "-//W3C//DTD SVG 1.1//EN" "http://www.w3.org/Graphics/SVG/1.1/DTD/svg11.dtd"><svg t="1650211377316" class="icon" viewBox="0 0 1024 1024" version="1.1" xmlns="http://www.w3.org/2000/svg" p-id="18481" xmlns:xlink="http://www.w3.org/1999/xlink" width="200" height="200"><defs><style type="text/css">@font-face { font-family: feedback-iconfont; src: url("//at.alicdn.com/t/font_1031158_u69w8yhxdu.woff2?t=1630033759944") format("woff2"), url("//at.alicdn.com/t/font_1031158_u69w8yhxdu.woff?t=1630033759944") format("woff"), url("//at.alicdn.com/t/font_1031158_u69w8yhxdu.ttf?t=1630033759944") format("truetype"); }
</style></defs><path d="M735.971341 494.77524l-8.147826-20.134942a100.504073 100.504073 0 0 0-82.288776-62.623081 99.181651 99.181651 0 0 0-92.910812 44.194491l-11.304575 16.935533c39.885954 15.101206 76.700477 22.779786 127.549737 22.907762 0 0 44.962349 1.279763 67.102252-1.279763z" p-id="18482" fill="#13227a"></path><path d="M888.049873 876.869886l-85.189573-211.758158c-44.450443 7.678579-77.510994 17.234145-135.10034 15.015888-125.630092-4.8631-204.634143-32.420669-274.466557-75.420713-82.288777-50.635966-115.008057-94.446527-124.051717-116.373138-32.420669-78.705439 12.712315-114.496152 29.519872-128.274936 14.674619-12.072433 38.819485-17.788709 57.418711-16.551605 40.525836 2.644844 63.476257 23.931573 82.843341 47.820487 7.550603 9.299613 32.71928 43.17068 33.145868 43.469292 5.844252-70.898884-25.08336-132.924742-82.630047-147.599361-68.083405-17.362121-166.710492 20.476212-206.80974 139.920781C128.46773 591.653317 116.779225 698.81216 137.426072 879.983976c24.912724 131.389026 112.917777 144.869199 185.9496 143.930706 69.27785 1.279763 109.547734-32.164716 122.601318-51.787752l164.662871-246.994306 93.465376 230.016113a99.693557 99.693557 0 0 0 92.057636 62.879035c12.754974 0 25.680582-2.559526 38.222262-7.891874 50.763942-21.627999 74.823491-81.307625 53.664738-133.308671z" p-id="18483" fill="#13227a"></path><path d="M779.440633 510.814939c-39.246073 6.868063-74.567538 9.726201-106.135032 9.726201-105.83642-0.213294-170.549782-31.567493-210.777006-60.57546a232.57564 232.57564 0 0 1-41.933576-39.075438 228.992303 228.992303 0 0 1-9.939494-13.522832c-19.367084-30.97027-56.309583-41.720282-86.895924-24.01689a66.419712 66.419712 0 0 0-24.230185 89.412792c3.284726 5.92957 28.837332 50.209378 88.516958 93.849305 59.295697 43.682585 153.145002 85.146914 284.150099 85.146914h1.109128c39.246073 0 81.734213-3.625996 127.720372-11.645845 34.852219-6.057546 58.357204-39.928613 52.384975-75.634008-5.92957-35.748053-39.032779-59.807602-73.970315-53.707398z m-191.196629-148.32456c96.408831 22.99308 192.817662-38.392897 215.298837-137.105302 22.481174-98.712405-37.539722-197.339492-133.948553-220.37523-96.45149-23.035738-192.860321 38.392897-215.341495 137.14796-22.438516 98.669746 37.539722 197.339492 133.991211 220.332572z" p-id="18484" fill="#13227a"></path></svg>