<?xml version="1.0" standalone="no"?><!DOCTYPE svg PUBLIC "-//W3C//DTD SVG 1.1//EN" "http://www.w3.org/Graphics/SVG/1.1/DTD/svg11.dtd"><svg t="1650390376990" class="icon" viewBox="0 0 1024 1024" version="1.1" xmlns="http://www.w3.org/2000/svg" p-id="2902" xmlns:xlink="http://www.w3.org/1999/xlink" width="200" height="200"><defs><style type="text/css">@font-face { font-family: feedback-iconfont; src: url("//at.alicdn.com/t/font_1031158_u69w8yhxdu.woff2?t=1630033759944") format("woff2"), url("//at.alicdn.com/t/font_1031158_u69w8yhxdu.woff?t=1630033759944") format("woff"), url("//at.alicdn.com/t/font_1031158_u69w8yhxdu.ttf?t=1630033759944") format("truetype"); }
</style></defs><path d="M783.705397 469.707175c0 205.446095-121.344 337.818413-271.038984 337.818412C362.975492 807.525587 241.627429 675.141079 241.627429 469.707175 241.627429 264.27327 362.975492 36.347937 512.670476 36.347937c149.690921 0 271.034921 227.92127 271.034921 433.359238z" fill="#FFD25F" p-id="2903"></path><path d="M508.606984 28.220952C358.912 28.220952 237.563937 256.142222 237.563937 461.58019s121.348063 337.818413 271.038984 337.818413c149.694984 0 271.038984-132.372317 271.038984-337.818413 0-205.437968-121.344-433.359238-271.034921-433.359238z m-14.047492 665.526858c-126.029206 0-228.193524-111.457524-228.193524-284.416 0-172.96254 102.164317-364.856889 228.197588-364.856889 126.03327 0 228.18946 191.894349 228.18946 364.856889 0 172.966603-102.15619 284.416-228.193524 284.416z" fill="#FFAC5F" opacity=".65" p-id="2904"></path><path d="M559.607873 683.259937V514.031746l100.132571-100.132571s17.24546-29.781333-10.317206-57.339937l-131.372698 155.168508V692.825397l41.557333-9.56546zM370.870857 507.863365s-24.852317 19.923302 0 44.771556c24.852317 24.848254 132.400762 140.527746 132.400762 140.527746v-34.730667l-132.400762-150.568635z" fill="#FFAC5F" opacity=".65" p-id="2905"></path><path d="M518.046476 1007.746032V313.348063" fill="#FFD25F" p-id="2906"></path><path d="M534.300444 1007.746032V313.348063a16.253968 16.253968 0 0 0-32.507936 0V1007.746032a16.253968 16.253968 0 0 0 32.507936 0z" fill="#C2A18E" p-id="2907"></path><path d="M518.046476 495.485968l120.206222-127.118222" fill="#FFD25F" p-id="2908"></path><path d="M529.859048 506.656508l120.206222-127.118222a16.253968 16.253968 0 1 0-23.612953-22.337016L506.242032 484.319492a16.253968 16.253968 0 0 0 23.617016 22.337016z" fill="#C2A18E" p-id="2909"></path><path d="M518.046476 647.265524l-130.962286-138.500064" fill="#FFD25F" p-id="2910"></path><path d="M529.859048 636.099048l-130.962286-138.500064a16.253968 16.253968 0 1 0-23.617016 22.332953l130.962286 138.500063a16.245841 16.245841 0 0 0 22.97092 0.637968 16.245841 16.245841 0 0 0 0.646096-22.97092z" fill="#C2A18E" p-id="2911"></path></svg>